<?xml version="1.0" encoding="utf-8"?>
<!-- Generator: Adobe Illustrator 16.0.0, SVG Export Plug-In . SVG Version: 6.00 Build 0)  -->
<!DOCTYPE svg PUBLIC "-//W3C//DTD SVG 1.1//EN" "http://www.w3.org/Graphics/SVG/1.1/DTD/svg11.dtd">
<svg version="1.1" id="Layer_1" xmlns="http://www.w3.org/2000/svg" xmlns:xlink="http://www.w3.org/1999/xlink" x="0px" y="0px"
	 width="580px" height="560px" viewBox="0 0 580 560" enable-background="new 0 0 580 560" xml:space="preserve">
<g>
	<path fill="none" d="M446.36,180.419c2.435-2.341,2.435-6.136,0-8.484c-2.434-2.335-6.378-2.335-8.822,0
		c-2.423,2.348-2.423,6.143,0,8.484C439.982,182.761,443.927,182.761,446.36,180.419z"/>
	<path fill="none" d="M480.387,120.883c2.443-2.342,2.443-6.131,0-8.474c-2.435-2.341-6.389-2.341-8.813,0
		c-2.425,2.342-2.425,6.131,0,8.474C473.998,123.224,477.952,123.229,480.387,120.883z"/>
	<path fill="none" d="M501.604,181.806c2.434-2.341,2.434-6.141,0-8.482c-2.424-2.341-6.377-2.341-8.812,0
		c-2.425,2.341-2.425,6.141,0,8.482C495.228,184.143,499.181,184.143,501.604,181.806z"/>
	<path fill="none" d="M444.841,96.983c2.423-2.342,2.423-6.136,0-8.483c-2.444-2.336-6.389-2.336-8.822,0
		c-2.435,2.347-2.435,6.142,0,8.483C438.452,99.325,442.396,99.325,444.841,96.983z"/>
	<path fill="none" d="M444.696,127.214c2.435-2.347,2.435-6.136,0-8.478c-2.433-2.341-6.378-2.341-8.821,0
		c-2.424,2.342-2.424,6.131,0,8.478C438.318,129.561,442.264,129.561,444.696,127.214z"/>
	<path fill="none" d="M421.014,187.568c-2.435,2.341-2.435,6.141,0,8.482c2.435,2.337,6.388,2.337,8.813,0
		c2.443-2.341,2.443-6.141,0-8.482C427.401,185.227,423.448,185.227,421.014,187.568z"/>
	<path fill="none" d="M524.22,173.19c-2.435,2.341-2.435,6.131,0,8.482c2.435,2.337,6.378,2.337,8.823,0
		c2.422-2.352,2.422-6.141,0-8.482C530.598,170.847,526.654,170.847,524.22,173.19z"/>
	<path fill="none" d="M508.188,147.461c2.433-2.335,2.433-6.137,0.01-8.478c-2.444-2.335-6.388-2.335-8.833,0
		c-2.435,2.341-2.424,6.143,0,8.478C501.811,149.804,505.754,149.804,508.188,147.461z"/>
	<polygon points="138.182,72.252 30.055,176.271 41.497,187.286 149.628,83.263 	"/>
	<polygon points="167.436,100.398 155.996,89.383 47.859,193.401 59.311,204.422 	"/>
	<polygon points="177.62,193.401 220.868,151.797 173.804,106.52 65.673,210.538 112.731,255.813 155.996,214.209 208.806,265.017 
		252.054,265.017 	"/>
	<polygon fill="#4E4E4E" points="173.568,242.811 173.568,242.811 173.772,242.462 	"/>
	<path d="M160.406,379.361l11.338,18.697l21.475-2.033c5.418,6.475,10.759,11.975,17.45,17.252l-2.09,20.641l19.441,10.797
		l17.348-11.959c10.09,3.764,14.439,6.004,25.613,7.117l8.731,18.791h22.431l8.916-19.113c10.537-1.033,12.797-2.48,22.378-5.875
		l17.461,11.924l19.431-10.836l-2.074-20.195c6.645-5.121,12.725-10.883,18.146-17.178l21.219,1.992l11.206-18.701l-6.717-8.957
		H165.984L160.406,379.361z M315.659,392.348c0.597-2.896,1.604-5.072,3.031-6.527c1.438-1.451,3.153-2.182,5.125-2.182
		c2.26,0,4.077,1.002,5.484,3.01c1.396,1.998,2.094,5.176,2.094,9.52h-5.083c0-5.188-0.914-7.795-2.722-7.795
		c-1.068,0-1.839,0.74-2.279,2.219c-0.442,1.469-0.658,3.846-0.658,7.139v6.068c1.346-1.365,2.938-2.049,4.786-2.049
		c2.167,0,3.82,1.021,4.992,3.07c1.159,2.055,1.745,5.09,1.745,9.115c0,4.293-0.739,7.816-2.198,10.559
		c-1.469,2.742-3.614,4.109-6.439,4.109c-3.061,0-5.289-1.393-6.675-4.182c-1.386-2.793-2.075-8.602-2.075-17.414
		C314.787,400.127,315.075,395.244,315.659,392.348z M296.383,422.861h2.609v-31.223c-0.833,0.637-1.706,1.049-2.609,1.244v-5.285
		c2.414-0.924,4.252-2.238,5.547-3.959h2.484v39.223h2.424v5.021h-10.455V422.861z M273.314,389.33
		c1.34-3.797,3.567-5.691,6.67-5.691c2.906,0,5.084,1.721,6.531,5.141c1.432,3.426,2.157,9.186,2.157,17.279
		c0,8.273-0.709,14.102-2.132,17.475c-1.423,3.385-3.61,5.07-6.557,5.07c-2.912,0-5.089-1.676-6.522-5.023
		c-1.448-3.35-2.171-9.193-2.171-17.521C271.291,398.695,271.958,393.123,273.314,389.33z M249.081,424.393
		c0-1.768,0.195-3.514,0.59-5.229s0.986-3.389,1.766-5.021c0.776-1.633,1.757-3.217,2.933-4.74l3.116-4.098
		c1.407-1.834,2.312-3.461,2.717-4.885c0.401-1.416,0.601-3.389,0.601-5.885c0-4.109-1.063-6.162-3.204-6.162
		c-2.25,0-3.375,1.932-3.375,5.813c0,0.268,0.124,1.623,0.37,4.068h-5.078c-0.293-1.295-0.437-2.609-0.437-3.965
		c0-3.406,0.754-6.033,2.249-7.873c1.5-1.852,3.635-2.777,6.383-2.777c2.85,0,5.053,0.965,6.598,2.918
		c1.556,1.939,2.333,4.703,2.333,8.256c0,2.393-0.345,4.602-1.042,6.645c-0.698,2.045-1.587,3.713-2.682,5.027l-3.852,4.535
		c-0.939,1.113-1.76,2.332-2.469,3.646c-0.693,1.324-1.258,2.67-1.67,4.057c-0.416,1.371-0.652,2.648-0.704,3.846h7.391v-7.943
		h5.027v13.258h-17.563V424.393z"/>
	<path d="M279.984,423.867c1.041,0,1.766-0.719,2.198-2.178c0.416-1.459,0.632-3.83,0.632-7.117v-17.1
		c0-3.316-0.232-5.658-0.694-7.029c-0.463-1.377-1.171-2.07-2.136-2.07c-1.905,0-2.86,2.9-2.86,8.695v17.504
		c0,3.154,0.23,5.5,0.677,7.016C278.248,423.107,278.981,423.867,279.984,423.867z"/>
	<path d="M323.477,423.867c1.058,0,1.786-0.682,2.208-2.064c0.41-1.377,0.626-3.984,0.626-7.807c0-2.91-0.216-4.979-0.626-6.213
		c-0.422-1.232-1.213-1.848-2.383-1.848c-0.935,0-1.828,0.451-2.65,1.355v9.594c0,2.463,0.216,4.24,0.658,5.338
		C321.75,423.322,322.479,423.867,323.477,423.867z"/>
	<polygon points="173.568,242.811 162.552,261.155 165.423,265.017 196.732,265.017 	"/>
	<polygon points="418.517,261.433 407.323,242.734 405.412,242.915 382.386,265.017 415.847,265.017 	"/>
	<path d="M369.938,213.69l0.679-6.814l-19.432-10.798l-17.563,12.113c-8.227-3.091-14.121-3.959-23.087-5.006l-8.905-18.205h-22.444
		l-8.904,18.205c-7.903,1.047-15.066,2.85-22.389,5.407l-17.398-12.119l-19.437,10.722l0.806,7.605l52.81,50.217h50.871
		L369.938,213.69z"/>
	<path d="M535.517,170.895c-3.778-3.631-9.817-3.559-13.597,0.077c-2.507,2.423-3.667,5.535-2.312,9.125l-39.479,37.985
		l-19.021-0.031l33.194-31.93c3.728,1.298,7.024,0.256,9.551-2.173c3.78-3.63,3.996-9.305,0.216-12.94
		c-3.779-3.631-9.901-3.631-13.68,0.004c-2.506,2.414-3.164,6.01-2.434,8.987l-5.854,5.628l-0.01-14.655l19.368-18.636
		c3.104,0.688,6.708-0.061,9.213-2.48c3.79-3.629,3.667-9.633-0.112-13.269c-3.77-3.635-9.859-3.6-13.65,0.031
		c-2.505,2.422-3.193,5.992-2.67,9.155l-21.742,21.08l0.042,27.977l-19.094,18.358L434.23,194.69
		c0.083-2.367,0.247-6.763-2.279-9.187c-3.769-3.63-9.706-3.831-13.484-0.195c-3.769,3.635-3.769,9.485,0.01,13.121
		c2.517,2.418,5.905,3.307,9.201,2.435l17.594,16.971l-15.016,0.011l-6.08-0.005v0.015l-18.311,0.016l-3.081,3.054l-45.93,44.091
		h13.648l39.511-37.959l14.44-0.083v0.104l58.797,0.42c0,0,1.213-0.144,2.178,0.144l41.8-40.207
		c1.819-0.536,6.317-0.442,8.822-2.867C539.83,180.943,539.286,174.53,535.517,170.895z M492.793,173.323
		c2.435-2.341,6.388-2.341,8.812,0c2.434,2.341,2.434,6.141,0,8.482c-2.424,2.337-6.377,2.337-8.812,0
		C490.368,179.464,490.368,175.665,492.793,173.323z M499.365,138.983c2.445-2.335,6.389-2.335,8.833,0
		c2.423,2.341,2.423,6.143-0.01,8.478c-2.435,2.343-6.378,2.343-8.823,0C496.941,145.126,496.931,141.325,499.365,138.983z
		 M429.826,196.05c-2.425,2.337-6.378,2.337-8.813,0c-2.435-2.341-2.435-6.141,0-8.482s6.388-2.341,8.813,0
		C432.27,189.909,432.27,193.709,429.826,196.05z M533.043,181.672c-2.445,2.337-6.389,2.337-8.823,0
		c-2.435-2.352-2.435-6.141,0-8.482c2.435-2.343,6.378-2.343,8.823,0C535.465,175.531,535.465,179.321,533.043,181.672z"/>
	<path d="M398.479,210.152l-0.185-18.255h0.094l-0.125-22.899l14.944-14.008l19.39,18.948c-0.903,3.164,0.011,6.446,2.527,8.864
		c3.769,3.636,9.891,3.615,13.67-0.021c3.769-3.636,3.553-9.32-0.227-12.957c-2.505-2.423-7.025-2.325-9.479-2.249l-19.297-18.559
		l2.104-2.028l29.682-0.093l21.782-21.043c3.287,0.504,6.964-0.195,9.481-2.619c3.769-3.63,3.769-9.531-0.012-13.162
		c-3.779-3.635-9.993-3.723-13.772-0.087c-2.505,2.413-3.327,5.844-2.619,8.822l-19.37,18.641l-15.333,0.087l5.947-5.726
		c3.102,0.688,6.839,0.062,9.355-2.352c3.77-3.636,3.82-9.475,0.041-13.105c-3.769-3.636-9.675-3.415-13.443,0.216
		c-2.518,2.418-3.656,5.546-2.322,9.13l-33.11,31.873l-0.104-18.24l39.479-37.984c3.729,1.304,6.964,0.185,9.469-2.234
		c3.771-3.63,3.894-9.418,0.124-13.048c-3.78-3.636-10.403-4.119-14.184-0.483c-2.517,2.424-2.485,6.686-3.029,8.437l-41.8,40.214
		c0.297,0.924,0.185,2.125,0.185,2.125l0.534,56.62l-0.052,13.917l-60.667,58.12h13.648L398.479,210.152z M437.538,171.936
		c2.444-2.335,6.389-2.335,8.822,0c2.435,2.348,2.435,6.143,0,8.484c-2.434,2.342-6.378,2.342-8.822,0
		C435.115,178.078,435.115,174.283,437.538,171.936z M471.574,112.409c2.424-2.341,6.378-2.341,8.813,0
		c2.443,2.342,2.443,6.131,0,8.474c-2.435,2.347-6.389,2.341-8.813,0C469.149,118.541,469.149,114.751,471.574,112.409z
		 M435.875,118.736c2.443-2.341,6.389-2.341,8.821,0c2.435,2.342,2.435,6.131,0,8.478c-2.433,2.347-6.378,2.347-8.821,0
		C433.451,124.867,433.451,121.078,435.875,118.736z M436.019,88.5c2.434-2.336,6.378-2.336,8.822,0
		c2.423,2.347,2.423,6.142,0,8.483c-2.444,2.342-6.389,2.342-8.822,0C433.584,94.642,433.584,90.847,436.019,88.5z"/>
	<path fill="none" stroke="#000000" stroke-width="5" stroke-miterlimit="10" d="M341.618,263.021H327.97h-12.612h-50.871h-12.622
		h-43.248h-12.074h-31.309H77.941c-12.381,0-22.492,11.503-22.492,26.399v53.971c0,14.896,10.111,26.338,22.492,26.338h87.853
		H411.92h90.04c12.375,0,21.823-11.441,21.823-25.338v-53.971c0-15.896-9.448-27.399-21.823-27.399h-86.303h-33.461h-11.883h-13.648
		H341.618z"/>
	<path fill="#FFFFFF" d="M365.533,342.234c3.44,0,12.581-8.998,14.02-13.439c0.594-1.828,2.26-8.432,3.317-13.104
		c-0.945-1.594-3.317-2.851-5.938-2.851c-4.272,0-7.724,5.704-9.612,10.028c-2.619,5.813-4.283,12.191-4.283,15.611
		C363.037,340.643,363.992,342.234,365.533,342.234z"/>
	<path fill="#FFFFFF" d="M224.796,310.34c-1.9,0-3.445,0.451-5.227,2.501c-3.091,3.538-6.646,14.702-6.646,24.386
		c0,2.395,0.227,4.668,0.945,6.379c0.478,1.141,2.018,2.732,4.155,2.732c2.023,0,4.159-0.91,5.705-3.416
		c2.142-3.533,5.345-15.842,5.345-26.092c0-1.479-0.241-3.414-0.831-4.555C227.534,311.135,226.337,310.34,224.796,310.34z"/>
	<path fill="#010101" stroke="#010101" stroke-width="0.5" stroke-miterlimit="10" d="M102.354,279.344c-4.992,0-11.169,0-15.683,0
		c-0.59,3.193-1.299,6.5-1.782,9.689l6.773,0.339l-9.859,53.437c0,0.457-0.242,0.684-0.714,0.797l-5.937,0.227
		c-0.595,3.193-1.191,6.381-1.781,9.684c4.868,0,10.804-0.113,16.273-0.113c16.268,0,32.66,0.113,38.836,0.113
		c2.609-6.379,4.987-13.1,7.246-19.252c-2.973-0.914-6.532-1.822-9.982-2.398l-4.869,8.434c-0.708,1.371-1.662,2.166-2.844,2.51
		c-1.315,0.344-4.986,0.908-9.741,0.908c-5.228,0-7.246-0.338-6.768-2.619l3.559-20.165c3.563,0,7.132,0,10.456,0
		c2.495,0,2.607,0.909,2.607,2.851l-0.112,4.328c3.322,0,6.527,0,9.737-0.23c0.595-3.303,1.305-7.631,2.018-11.502
		c0.708-3.877,1.659-8.206,2.372-11.966c-3.204-0.227-6.413-0.339-9.741-0.227l-1.542,4.552c-0.467,1.371-0.59,2.166-3.085,2.166
		c-3.569,0.113-7.127,0.113-10.933,0.23l3.924-21.418c0.117-0.457,0.719-0.457,1.191-0.457c7.482,0,11.991,0.344,13.655,0.569
		c1.664,0.227,1.905,0.914,1.905,1.942l0.472,8.426c3.209-0.113,6.768-0.227,9.855-0.569c0.956-6.722,1.787-13.558,2.619-20.397
		c-2.013,0-6.296,0.114-10.929,0.114C126.222,279.344,105.912,279.344,102.354,279.344z"/>
	<path fill="#010101" stroke="#010101" stroke-width="0.5" stroke-miterlimit="10" d="M175.036,313.071
		c3.317,0,9.506,3.646,10.563,4.323c2.497-0.904,7.369-8.656,7.369-12.524c-0.713-0.796-4.996-2.736-11.287-2.736
		c-8.544,0-16.391,1.479-24.346,8.206c-8.787,7.404-12.591,18.229-12.591,26.313c0,11.287,9.145,17.891,20.197,17.891
		c8.077,0,17.814-2.963,22.804-5.238c-0.594-2.85-1.313-5.699-2.146-8.432c-4.271,1.254-10.45,2.506-13.777,2.506
		c-4.981,0-7.832-3.42-7.832-10.029c0-5.469,2.256-13.443,5.223-17.316C170.764,313.979,172.777,313.071,175.036,313.071z"/>
	<path fill="#010101" stroke="#010101" stroke-width="0.5" stroke-miterlimit="10" d="M227.409,302.134
		c-9.268,0-15.801,2.736-21.613,7.403c-6.654,5.356-11.877,14.698-11.877,27.002c0,4.674,2.248,9.346,3.671,11.055
		c2.495,2.965,7.605,6.949,17.347,6.949c8.792,0,14.727-1.705,19.355-5.238c7.363-5.588,13.777-15.385,13.777-27.463
		c0-6.15-2.491-10.707-3.795-12.53C241.064,305.209,236.438,302.134,227.409,302.134z M223.728,342.922
		c-1.545,2.506-3.681,3.416-5.705,3.416c-2.137,0-3.677-1.592-4.155-2.732c-0.719-1.711-0.945-3.984-0.945-6.379
		c0-9.684,3.554-20.848,6.646-24.386c1.782-2.05,3.327-2.501,5.227-2.501c1.541,0,2.738,0.795,3.446,1.936
		c0.59,1.141,0.831,3.075,0.831,4.555C229.073,327.08,225.87,339.389,223.728,342.922z"/>
	<path fill="#010101" stroke="#010101" stroke-width="0.5" stroke-miterlimit="10" d="M299.864,286.296
		c-11.171,7.632-20.553,21.763-20.553,37.939c0,8.89,2.736,17.435,9.145,22.563c5.708,4.555,12.703,7.744,23.158,7.744
		c5.474,0,15.795-2.055,23.631-4.898c0.124-3.307,0.247-7.518,0-10.938c-3.677,1.365-12.826,3.305-17.808,3.305
		c-5.588,0-10.456-1.828-12.951-4.898c-3.677-4.334-4.16-9.002-4.16-14.814c0-11.395,4.406-22.215,11.523-28.371
		c3.564-3.076,7.836-4.099,11.4-4.099c2.495,0,4.878,0.569,6.542,1.706c0.474,0.349,0.586,1.025,0.586,1.597l0.359,11.507
		c3.553,0,7.364-0.111,11.041-0.338c0.954-7.867,1.909-15.951,2.618-23.699c-2.373-1.257-7.959-2.394-15.436-2.394
		C318.383,278.208,308.523,280.258,299.864,286.296z"/>
	<path fill="#010101" stroke="#010101" stroke-width="0.5" stroke-miterlimit="10" d="M344.633,341.324
		c0,2.281,0.472,4.104,1.428,5.928c1.89,3.984,7.59,7.064,10.445,7.518c4.632-0.113,11.636-2.732,21.383-12.191l1.182,0.344
		c-0.474,3.076-0.833,6.383-0.956,8.088c0.832,1.592,3.811,3.42,4.405,3.42c6.41,0,14.02-1.139,19.474-2.85
		c-0.237-3.076-0.586-6.039-1.181-9.002c-2.979,0.688-5.476,1.027-6.185,1.027c-0.461,0-0.831-0.227-0.708-0.684
		c2.136-9.455,6.531-27.23,9.614-38.052c-4.5-1.483-9.141-2.736-13.896-3.989l-3.08,5.813h-0.597
		c-3.688-3.08-7.847-4.56-12.591-4.56c-13.188,0-22.452,15.491-25.656,24.269C345.701,331.865,344.633,338.135,344.633,341.324z
		 M367.32,322.869c1.889-4.324,5.34-10.028,9.612-10.028c2.62,0,4.992,1.257,5.938,2.851c-1.058,4.672-2.724,11.275-3.317,13.104
		c-1.438,4.441-10.579,13.439-14.02,13.439c-1.541,0-2.496-1.592-2.496-3.754C363.037,335.061,364.701,328.682,367.32,322.869z"/>
	<path fill="#010101" stroke="#010101" stroke-width="0.5" stroke-miterlimit="10" d="M418.024,314.437
		c-2.013,10.487-6.285,29.851-8.195,39.079c5.823,0,11.523,0,17.346-0.113c1.068-4.785,2.847-12.189,3.914-16.176
		c1.899-7.404,10.568-17.32,15.56-17.32c1.54,0,5.946,1.141,6.892,1.598c2.136-1.711,5.7-11.627,5.7-17.43
		c-1.069-0.688-4.036-1.94-7.487-1.94c-4.273,0-9.265,5.237-17.336,17.089l-1.429-0.338c1.192-5.238,2.26-10.262,2.496-12.422
		c-0.822-1.593-4.52-4.329-5.351-4.329c-1.172,0-8.781,1.94-20.542,3.419c-0.122,3.07,0,6.152,0,9.225L418.024,314.437z"/>
	<path fill="#010101" stroke="#010101" stroke-width="0.5" stroke-miterlimit="10" d="M492.967,350.896
		c5.588-3.193,9.378-8.088,9.378-15.262c0-6.953-5.104-10.6-12.942-13.447c-4.753-1.712-9.139-2.852-9.139-5.697
		c0-1.713,0.831-2.968,2.372-3.871c1.428-0.801,3.676-1.027,5.464-1.027c1.787,0,3.923,0.565,4.99,1.249
		c0.474,0.343,0.586,0.806,0.709,1.371l0.955,6.038c3.081-0.113,6.646-0.226,9.141-0.57c0.359-4.672,0.719-10.254,1.068-15.267
		c-2.618-1.253-8.422-2.279-14.009-2.279c-6.305,0-11.76,0.8-16.628,2.851c-4.519,1.936-11.398,7.173-11.398,15.04
		c0,8.2,6.88,11.62,14.604,14.472c5.228,1.816,7.723,3.182,7.723,6.033c0,1.936-0.945,3.076-1.899,3.641
		c-1.314,0.688-3.215,0.914-5.474,0.914c-2.373,0-4.869-0.684-6.533-1.592c-0.349-0.227-0.472-0.801-0.595-1.258l-1.182-6.949
		c-2.979,0.113-6.06,0.227-9.028,0.57c-0.235,5.131-0.708,10.824-1.067,16.521c3.452,1.365,9.613,2.166,15.807,2.166
		C483.938,354.543,489.764,352.725,492.967,350.896z"/>
	<path fill="#FFFFFF" d="M266.643,414.625h-5.027v7.943h-7.391c0.052-1.197,0.288-2.475,0.704-3.846
		c0.412-1.387,0.977-2.732,1.67-4.057c0.708-1.314,1.529-2.533,2.469-3.646l3.852-4.535c1.094-1.314,1.983-2.982,2.682-5.027
		c0.698-2.043,1.042-4.252,1.042-6.645c0-3.553-0.776-6.316-2.333-8.256c-1.545-1.953-3.748-2.918-6.598-2.918
		c-2.748,0-4.884,0.926-6.383,2.777c-1.494,1.84-2.249,4.467-2.249,7.873c0,1.355,0.144,2.67,0.437,3.965h5.078
		c-0.246-2.445-0.37-3.801-0.37-4.068c0-3.881,1.125-5.813,3.375-5.813c2.14,0,3.204,2.053,3.204,6.162
		c0,2.496-0.2,4.469-0.601,5.885c-0.405,1.424-1.31,3.051-2.717,4.885l-3.116,4.098c-1.176,1.523-2.157,3.107-2.933,4.74
		c-0.78,1.633-1.371,3.307-1.766,5.021s-0.59,3.461-0.59,5.229v3.49h17.563V414.625z"/>
	<path fill="#FFFFFF" d="M279.984,428.604c2.946,0,5.134-1.686,6.557-5.07c1.423-3.373,2.132-9.201,2.132-17.475
		c0-8.094-0.726-13.854-2.157-17.279c-1.447-3.42-3.625-5.141-6.531-5.141c-3.103,0-5.331,1.895-6.67,5.691
		c-1.356,3.793-2.023,9.365-2.023,16.729c0,8.328,0.723,14.172,2.171,17.521C274.895,426.928,277.072,428.604,279.984,428.604z
		 M277.124,397.068c0-5.795,0.955-8.695,2.86-8.695c0.964,0,1.673,0.693,2.136,2.07c0.461,1.371,0.694,3.713,0.694,7.029v17.1
		c0,3.287-0.216,5.658-0.632,7.117c-0.432,1.459-1.157,2.178-2.198,2.178c-1.003,0-1.736-0.76-2.183-2.279
		c-0.447-1.516-0.677-3.861-0.677-7.016V397.068z"/>
	<path fill="#FFFFFF" d="M306.838,422.861h-2.424v-39.223h-2.484c-1.295,1.721-3.133,3.035-5.547,3.959v5.285
		c0.903-0.195,1.776-0.607,2.609-1.244v31.223h-2.609v5.021h10.455V422.861z"/>
	<path fill="#FFFFFF" d="M323.537,428.604c2.825,0,4.971-1.367,6.439-4.109c1.459-2.742,2.198-6.266,2.198-10.559
		c0-4.025-0.586-7.061-1.745-9.115c-1.172-2.049-2.825-3.07-4.992-3.07c-1.849,0-3.44,0.684-4.786,2.049v-6.068
		c0-3.293,0.216-5.67,0.658-7.139c0.44-1.479,1.211-2.219,2.279-2.219c1.808,0,2.722,2.607,2.722,7.795h5.083
		c0-4.344-0.698-7.521-2.094-9.52c-1.407-2.008-3.225-3.01-5.484-3.01c-1.972,0-3.688,0.73-5.125,2.182
		c-1.428,1.455-2.435,3.631-3.031,6.527c-0.584,2.896-0.872,7.779-0.872,14.66c0,8.813,0.689,14.621,2.075,17.414
		C318.248,427.211,320.477,428.604,323.537,428.604z M320.651,407.291c0.822-0.904,1.716-1.355,2.65-1.355
		c1.17,0,1.961,0.615,2.383,1.848c0.41,1.234,0.626,3.303,0.626,6.213c0,3.822-0.216,6.43-0.626,7.807
		c-0.422,1.383-1.15,2.064-2.208,2.064c-0.997,0-1.727-0.545-2.167-1.645c-0.442-1.098-0.658-2.875-0.658-5.338V407.291z"/>
</g>
</svg>
